<svg width="17" height="17" viewBox="0 0 17 17" fill="none" xmlns="http://www.w3.org/2000/svg">
<path d="M3.02941 2.65662C4.5297 1.15633 6.56454 0.313476 8.68627 0.313476C10.808 0.313476 12.8428 1.15633 14.3431 2.65662C15.8434 4.15691 16.6863 6.19174 16.6863 8.31348C16.6863 10.4352 15.8434 12.47 14.3431 13.9703C12.8428 15.4706 10.808 16.3135 8.68627 16.3135C6.56454 16.3135 4.5297 15.4706 3.02941 13.9703C1.52912 12.47 0.686267 10.4352 0.686267 8.31348C0.686267 6.19174 1.52912 4.15691 3.02941 2.65662ZM5.85784 10.4348C5.76407 10.5286 5.71139 10.6557 5.71139 10.7884C5.71139 10.921 5.76407 11.0481 5.85784 11.1419C5.95161 11.2357 6.07879 11.2884 6.21139 11.2884C6.344 11.2884 6.47118 11.2357 6.56495 11.1419L10.6612 7.04563L10.6605 10.0812C10.6605 10.147 10.6735 10.2121 10.6986 10.2728C10.7238 10.3336 10.7607 10.3888 10.8071 10.4352C10.8536 10.4817 10.9088 10.5186 10.9696 10.5438C11.0303 10.5689 11.0954 10.5819 11.1611 10.5819C11.2269 10.5819 11.292 10.5689 11.3527 10.5438C11.4135 10.5186 11.4687 10.4817 11.5151 10.4352C11.5616 10.3888 11.5985 10.3336 11.6237 10.2728C11.6488 10.2121 11.6618 10.147 11.6618 10.0812V5.8386C11.6619 5.77284 11.649 5.7077 11.6238 5.64692C11.5987 5.58614 11.5618 5.53092 11.5153 5.48442C11.4688 5.43791 11.4136 5.40104 11.3528 5.37591C11.292 5.35078 11.2269 5.33789 11.1611 5.33797H6.9185C6.85276 5.33797 6.78766 5.35092 6.72692 5.37608C6.66618 5.40124 6.61099 5.43811 6.5645 5.4846C6.51801 5.53109 6.48114 5.58628 6.45598 5.64702C6.43082 5.70776 6.41787 5.77286 6.41787 5.8386C6.41787 5.90435 6.43082 5.96945 6.45598 6.03019C6.48114 6.09093 6.51801 6.14612 6.5645 6.1926C6.61099 6.23909 6.66618 6.27597 6.72692 6.30113C6.78766 6.32629 6.85276 6.33923 6.9185 6.33923L9.95411 6.33853L5.85784 10.4348Z" fill="white"/>
</svg>
