<svg width="21" height="20" viewBox="0 0 21 20" fill="none" xmlns="http://www.w3.org/2000/svg">
<path d="M10.5 0C13.1522 0 15.6957 1.05357 17.5711 2.92893C19.4464 4.8043 20.5 7.34784 20.5 10C20.5 12.6522 19.4464 15.1957 17.5711 17.0711C15.6957 18.9464 13.1522 20 10.5 20C7.84784 20 5.3043 18.9464 3.42893 17.0711C1.55357 15.1957 0.5 12.6522 0.5 10C0.5 7.34784 1.55357 4.8043 3.42893 2.92893C5.3043 1.05357 7.84784 0 10.5 0ZM6.125 9.375C5.95924 9.375 5.80027 9.44085 5.68306 9.55806C5.56585 9.67527 5.5 9.83424 5.5 10C5.5 10.1658 5.56585 10.3247 5.68306 10.4419C5.80027 10.5592 5.95924 10.625 6.125 10.625H13.3663L10.6825 13.3075C10.6244 13.3656 10.5783 13.4346 10.5468 13.5105C10.5154 13.5864 10.4992 13.6678 10.4992 13.75C10.4992 13.8322 10.5154 13.9136 10.5468 13.9895C10.5783 14.0654 10.6244 14.1344 10.6825 14.1925C10.7406 14.2506 10.8096 14.2967 10.8855 14.3282C10.9614 14.3596 11.0428 14.3758 11.125 14.3758C11.2072 14.3758 11.2886 14.3596 11.3645 14.3282C11.4404 14.2967 11.5094 14.2506 11.5675 14.1925L15.3175 10.4425C15.3757 10.3844 15.4219 10.3155 15.4534 10.2395C15.4849 10.1636 15.5011 10.0822 15.5011 10C15.5011 9.91779 15.4849 9.83639 15.4534 9.76046C15.4219 9.68453 15.3757 9.61556 15.3175 9.5575L11.5675 5.8075C11.5094 5.74939 11.4404 5.70329 11.3645 5.67185C11.2886 5.6404 11.2072 5.62421 11.125 5.62421C11.0428 5.62421 10.9614 5.6404 10.8855 5.67185C10.8096 5.70329 10.7406 5.74939 10.6825 5.8075C10.6244 5.86561 10.5783 5.9346 10.5468 6.01052C10.5154 6.08644 10.4992 6.16782 10.4992 6.25C10.4992 6.33218 10.5154 6.41356 10.5468 6.48948C10.5783 6.5654 10.6244 6.63439 10.6825 6.6925L13.3663 9.375H6.125Z" fill="black"/>
</svg>
