<svg width="17" height="17" viewBox="0 0 17 17" fill="none" xmlns="http://www.w3.org/2000/svg">
<path d="M2.65685 2.46033C4.15715 0.960042 6.19198 0.117187 8.31371 0.117187C10.4354 0.117187 12.4703 0.960042 13.9706 2.46033C15.4709 3.96062 16.3137 5.99546 16.3137 8.11719C16.3137 10.2389 15.4709 12.2738 13.9706 13.774C12.4703 15.2743 10.4354 16.1172 8.31371 16.1172C6.19198 16.1172 4.15715 15.2743 2.65685 13.774C1.15656 12.2738 0.313708 10.2389 0.313709 8.11719C0.313708 5.99546 1.15656 3.96062 2.65685 2.46033ZM5.48528 10.2385C5.39151 10.3323 5.33884 10.4595 5.33884 10.5921C5.33884 10.7247 5.39151 10.8518 5.48528 10.9456C5.57905 11.0394 5.70623 11.0921 5.83883 11.0921C5.97144 11.0921 6.09862 11.0394 6.19239 10.9456L10.2887 6.84934L10.288 9.88495C10.288 9.9507 10.3009 10.0158 10.3261 10.0765C10.3512 10.1373 10.3881 10.1925 10.4346 10.239C10.4811 10.2854 10.5363 10.3223 10.597 10.3475C10.6577 10.3726 10.7228 10.3856 10.7886 10.3856C10.8543 10.3856 10.9194 10.3726 10.9802 10.3475C11.0409 10.3223 11.0961 10.2854 11.1426 10.239C11.1891 10.1925 11.2259 10.1373 11.2511 10.0765C11.2763 10.0158 11.2892 9.9507 11.2892 9.88495V5.64231C11.2893 5.57655 11.2764 5.51141 11.2513 5.45063C11.2261 5.38986 11.1893 5.33463 11.1428 5.28813C11.0963 5.24162 11.041 5.20475 10.9803 5.17962C10.9195 5.15449 10.8543 5.1416 10.7886 5.14168H6.54594C6.4802 5.14168 6.4151 5.15463 6.35436 5.17979C6.29362 5.20495 6.23843 5.24183 6.19194 5.28831C6.14545 5.3348 6.10858 5.38999 6.08342 5.45073C6.05826 5.51147 6.04531 5.57657 6.04531 5.64231C6.04531 5.70806 6.05826 5.77316 6.08342 5.8339C6.10858 5.89464 6.14545 5.94983 6.19194 5.99631C6.23843 6.0428 6.29362 6.07968 6.35436 6.10484C6.4151 6.13 6.4802 6.14295 6.54594 6.14295L9.58155 6.14224L5.48528 10.2385Z" fill="black"/>
</svg>
