<svg width="12" height="13" viewBox="0 0 12 13" fill="none" xmlns="http://www.w3.org/2000/svg">
<path d="M9.22155 12.4878C6.77682 12.4847 4.43312 11.5121 2.70443 9.7834C0.97574 8.05471 0.00316881 5.71101 0 3.26628C0 2.53574 0.290204 1.83513 0.806772 1.31856C1.32334 0.801992 2.02395 0.511787 2.75449 0.511787C2.90919 0.510609 3.06362 0.524648 3.21557 0.553703C3.36246 0.57544 3.50687 0.611541 3.64671 0.661488C3.74506 0.695996 3.8327 0.75558 3.90096 0.834345C3.96923 0.913111 4.01575 1.00833 4.03593 1.11059L4.85629 4.7034C4.8784 4.80093 4.87574 4.90243 4.84854 4.99866C4.82135 5.09489 4.77048 5.18278 4.7006 5.2543C4.62275 5.33813 4.61677 5.34412 3.88024 5.72736C4.47006 7.02128 5.50491 8.06038 6.79641 8.6555C7.18563 7.91298 7.19162 7.907 7.27545 7.82915C7.34697 7.75926 7.43486 7.7084 7.53109 7.68121C7.62732 7.65401 7.72882 7.65135 7.82635 7.67346L11.4192 8.49382C11.5181 8.51679 11.6097 8.56457 11.6851 8.63266C11.7605 8.70075 11.8174 8.78691 11.8503 8.88304C11.9008 9.02517 11.9389 9.17143 11.9641 9.32017C11.9882 9.47066 12.0002 9.62285 12 9.77526C11.989 10.5027 11.6906 11.1962 11.17 11.7044C10.6495 12.2126 9.94902 12.4942 9.22155 12.4878Z" fill="black"/>
</svg>
